<svg width="1920" height="140" viewBox="0 0 1920 140" fill="none" xmlns="http://www.w3.org/2000/svg">
<path fill-rule="evenodd" clip-rule="evenodd" d="M0 0L79.5 5.26012C160.5 10.5202 319.5 21.0405 480 38.8439C640.5 57.052 799.5 82.948 960 88.2081C1120.5 93.4682 1279.5 77.6879 1440 72.8324C1600.5 67.5723 1759.5 72.8324 1840.5 75.2601L1920 77.6879V140H1840.5C1759.5 140 1600.5 140 1440 140C1279.5 140 1120.5 140 960 140C799.5 140 640.5 140 480 140C319.5 140 160.5 140 79.5 140H0V0Z" fill="#20DF7F" fill-opacity="0.09"/>
</svg>
